<svg width="15" height="15" viewBox="0 0 15 15" fill="none" xmlns="http://www.w3.org/2000/svg">
    <path d="M13.3929 0.0625H1.60714C0.719866 0.0625 0 0.776367 0 1.65625V13.3438C0 14.2236 0.719866 14.9375 1.60714 14.9375H13.3929C14.2801 14.9375 15 14.2236 15 13.3438V1.65625C15 0.776367 14.2801 0.0625 13.3929 0.0625ZM13.9286 13.3438C13.9286 13.6359 13.6875 13.875 13.3929 13.875H1.60714C1.3125 13.875 1.07143 13.6359 1.07143 13.3438V1.65625C1.07143 1.36406 1.3125 1.125 1.60714 1.125H13.3929C13.6875 1.125 13.9286 1.36406 13.9286 1.65625V13.3438ZM6.69643 4.3125H5.35714V3.25C5.35714 3.03086 5.17634 2.85156 4.95536 2.85156H4.6875C4.46652 2.85156 4.28571 3.03086 4.28571 3.25V4.3125H2.94643C2.50446 4.3125 2.14286 4.67109 2.14286 5.10938V6.70312C2.14286 7.14141 2.50446 7.5 2.94643 7.5H4.28571V11.3516C4.28571 11.5707 4.46652 11.75 4.6875 11.75H4.95536C5.17634 11.75 5.35714 11.5707 5.35714 11.3516V7.5H6.69643C7.13839 7.5 7.5 7.14141 7.5 6.70312V5.10938C7.5 4.67109 7.13839 4.3125 6.69643 4.3125ZM6.42857 6.4375H3.21429V5.375H6.42857V6.4375ZM12.0536 7.5H10.7143V3.25C10.7143 3.03086 10.5335 2.85156 10.3125 2.85156H10.0446C9.82366 2.85156 9.64286 3.03086 9.64286 3.25V7.5H8.30357C7.86161 7.5 7.5 7.85859 7.5 8.29688V9.89062C7.5 10.3289 7.86161 10.6875 8.30357 10.6875H9.64286V11.3516C9.64286 11.5707 9.82366 11.75 10.0446 11.75H10.3125C10.5335 11.75 10.7143 11.5707 10.7143 11.3516V10.6875H12.0536C12.4955 10.6875 12.8571 10.3289 12.8571 9.89062V8.29688C12.8571 7.85859 12.4955 7.5 12.0536 7.5ZM11.7857 9.625H8.57143V8.5625H11.7857V9.625Z" fill="black"/>
    </svg>