<svg width="15" height="15" viewBox="0 0 15 15" fill="none" xmlns="http://www.w3.org/2000/svg">
<path d="M8.84933 7.32402L6.43862 6.65332C6.03348 6.54043 5.74888 6.1752 5.74888 5.7668C5.74888 5.25879 6.17745 4.84375 6.70312 4.84375H8.20982C8.58482 4.84375 8.94308 4.96328 9.23437 5.1791C9.34152 5.25879 9.48884 5.24551 9.58259 5.15254L9.96094 4.7707C10.0748 4.65781 10.0614 4.47188 9.93415 4.37227C9.44531 3.98711 8.84263 3.77793 8.20647 3.77793H8.03571V2.4498C8.03571 2.30371 7.91518 2.18418 7.76786 2.18418H7.23214C7.08482 2.18418 6.96429 2.30371 6.96429 2.4498V3.77793H6.70312C5.58817 3.77793 4.67745 4.66777 4.67745 5.76348C4.67745 6.64668 5.28348 7.43027 6.14732 7.67266L8.55804 8.34336C8.96317 8.45625 9.24777 8.82148 9.24777 9.22988C9.24777 9.73789 8.8192 10.1529 8.29353 10.1529H6.78683C6.41183 10.1529 6.05357 10.0334 5.76228 9.81758C5.65513 9.73789 5.50781 9.75117 5.41406 9.84414L5.03571 10.226C4.92187 10.3389 4.93527 10.5248 5.0625 10.6244C5.55134 11.0096 6.15402 11.2188 6.79018 11.2188H6.96429V12.5469C6.96429 12.693 7.08482 12.8125 7.23214 12.8125H7.76786C7.91518 12.8125 8.03571 12.693 8.03571 12.5469V11.2188H8.29688C9.41183 11.2188 10.3225 10.3289 10.3225 9.2332C10.3192 8.35 9.71652 7.56641 8.84933 7.32402ZM13.3929 0.0625H1.60714C0.719866 0.0625 0 0.776367 0 1.65625V13.3438C0 14.2236 0.719866 14.9375 1.60714 14.9375H13.3929C14.2801 14.9375 15 14.2236 15 13.3438V1.65625C15 0.776367 14.2801 0.0625 13.3929 0.0625ZM13.9286 13.3438C13.9286 13.6359 13.6875 13.875 13.3929 13.875H1.60714C1.3125 13.875 1.07143 13.6359 1.07143 13.3438V1.65625C1.07143 1.36406 1.3125 1.125 1.60714 1.125H13.3929C13.6875 1.125 13.9286 1.36406 13.9286 1.65625V13.3438Z" fill="black"/>
</svg>
